<svg xmlns="http://www.w3.org/2000/svg" xmlns:xlink="http://www.w3.org/1999/xlink" width="300" zoomAndPan="magnify" viewBox="0 0 224.87999 112.499997" height="150" preserveAspectRatio="xMidYMid meet" version="1.0"><path fill="#000000" d="M 50.132812 11.910156 L 50.132812 12.363281 C 54.03125 12.363281 54.304688 15.585938 54.304688 24.523438 L 54.304688 44.667969 C 54.304688 53.605469 54.03125 56.828125 50.132812 56.828125 L 50.132812 57.28125 L 82.554688 57.28125 L 82.554688 49.796875 L 82.101562 49.796875 C 82.101562 56.328125 68.269531 56.828125 63.960938 56.828125 L 58.203125 56.828125 L 58.203125 24.523438 C 58.203125 15.585938 58.476562 12.363281 62.375 12.363281 L 62.375 11.910156 Z M 50.132812 11.910156 " fill-opacity="1" fill-rule="nonzero"/><path fill="#000000" d="M 90.625 49.339844 C 90.625 54.0625 93.617188 58.1875 98.878906 58.1875 C 107.902344 58.1875 113.207031 50.203125 113.207031 39.179688 C 113.207031 37 113.117188 35.1875 112.9375 33.734375 L 118.558594 48.570312 C 120.28125 53.152344 120.507812 56.828125 114.117188 56.828125 L 114.117188 57.28125 L 128.988281 57.28125 L 128.988281 56.828125 C 126.222656 56.828125 124.769531 54.332031 122.773438 49.339844 L 108.265625 11.003906 L 107.8125 11.003906 C 104.953125 18.535156 103.277344 23.027344 100.511719 30.332031 C 100.058594 31.507812 100.285156 32.734375 101.554688 32.734375 C 104.140625 32.734375 105.5 27.96875 107.675781 27.96875 C 108.265625 27.96875 108.765625 28.335938 108.765625 29.195312 C 108.765625 33.917969 90.625 38.179688 90.625 49.339844 Z M 94.480469 48.480469 C 94.480469 37.273438 109.261719 35.367188 109.261719 29.285156 C 109.261719 28.109375 108.625 27.515625 107.765625 27.515625 C 105.363281 27.515625 103.6875 32.28125 101.597656 32.28125 C 100.875 32.28125 100.511719 31.734375 101.097656 30.148438 L 106.316406 16.265625 L 111.800781 30.738281 C 112.617188 33.417969 112.753906 35.914062 112.753906 39.269531 C 112.753906 46.710938 109.171875 56.011719 101.597656 56.011719 C 97.15625 56.011719 94.480469 52.746094 94.480469 48.480469 Z M 94.480469 48.480469 " fill-opacity="1" fill-rule="nonzero"/><path fill="#000000" d="M 135.699219 57.28125 L 147.898438 57.28125 L 147.898438 56.828125 C 143.996094 56.828125 143.726562 53.605469 143.726562 44.667969 L 143.726562 13.089844 C 146.492188 12.089844 148.667969 11.636719 152.023438 11.636719 C 160.457031 11.636719 165.761719 16.265625 165.761719 23.796875 C 165.761719 29.242188 162.089844 34.820312 156.421875 34.820312 C 152.203125 34.820312 150.117188 32.234375 147.441406 32.234375 C 146.625 32.234375 145.855469 32.691406 145.855469 33.777344 C 145.855469 36.863281 150.660156 37.042969 155.058594 43.671875 C 162.226562 54.421875 163.496094 57.28125 165.582031 57.28125 L 172.515625 57.28125 L 172.515625 56.828125 C 167.347656 56.828125 163.132812 48.753906 159.550781 43.171875 C 155.878906 37.457031 146.308594 36.816406 146.308594 33.871094 C 146.308594 32.828125 147.078125 32.691406 147.625 32.691406 C 149.527344 32.691406 152.429688 35.59375 156.691406 35.59375 C 164.582031 35.59375 169.660156 29.96875 169.660156 23.753906 C 169.660156 16.355469 164.265625 11.003906 154.605469 11.003906 C 149.347656 11.003906 146.128906 11.910156 141.140625 11.910156 L 135.699219 11.910156 L 135.699219 12.363281 C 139.597656 12.363281 139.871094 15.585938 139.871094 24.523438 L 139.871094 44.667969 C 139.871094 53.605469 139.597656 56.828125 135.699219 56.828125 Z M 135.699219 57.28125 " fill-opacity="1" fill-rule="nonzero"/><path fill="#000000" d="M 2.835938 94.71875 L 2.835938 74.460938 L 5.152344 74.460938 L 5.152344 92.867188 L 9.628906 92.867188 L 9.628906 94.71875 Z M 2.835938 94.71875 " fill-opacity="1" fill-rule="nonzero"/><path fill="#000000" d="M 22.09375 94.71875 L 21.195312 89.457031 L 17.121094 89.457031 L 16.253906 94.71875 L 13.9375 94.71875 L 17.644531 74.460938 L 20.703125 74.460938 L 24.410156 94.71875 Z M 19.167969 77.386719 L 17.441406 87.605469 L 20.875 87.605469 Z M 19.167969 77.386719 " fill-opacity="1" fill-rule="nonzero"/><path fill="#000000" d="M 30.105469 74.460938 L 32.421875 74.460938 L 32.421875 94.71875 L 30.105469 94.71875 Z M 30.105469 74.460938 " fill-opacity="1" fill-rule="nonzero"/><path fill="#000000" d="M 39.472656 94.71875 L 39.472656 74.460938 L 41.789062 74.460938 L 41.789062 92.867188 L 46.269531 92.867188 L 46.269531 94.71875 Z M 39.472656 94.71875 " fill-opacity="1" fill-rule="nonzero"/><path fill="#000000" d="M 58.730469 94.71875 L 57.832031 89.457031 L 53.761719 89.457031 L 52.890625 94.71875 L 50.578125 94.71875 L 54.28125 74.460938 L 57.339844 74.460938 L 61.046875 94.71875 Z M 55.808594 77.386719 L 54.078125 87.605469 L 57.515625 87.605469 Z M 55.808594 77.386719 " fill-opacity="1" fill-rule="nonzero"/><path fill="#000000" d="M 81.113281 94.71875 L 80.214844 89.457031 L 76.144531 89.457031 L 75.273438 94.71875 L 72.957031 94.71875 L 76.664062 74.460938 L 79.722656 74.460938 L 83.429688 94.71875 Z M 78.1875 77.386719 L 76.460938 87.605469 L 79.898438 87.605469 Z M 78.1875 77.386719 " fill-opacity="1" fill-rule="nonzero"/><path fill="#000000" d="M 89.125 94.71875 L 89.125 74.460938 L 92.707031 74.460938 C 94.132812 74.460938 95.242188 74.917969 96.035156 75.824219 C 96.824219 76.730469 97.222656 78.359375 97.222656 80.710938 L 97.222656 80.855469 C 97.222656 83.789062 96.507812 85.652344 95.078125 86.445312 L 97.480469 94.71875 L 95.109375 94.71875 L 92.851562 86.96875 L 91.441406 86.96875 L 91.441406 94.71875 Z M 94.933594 81.144531 L 94.933594 80.273438 C 94.933594 78.796875 94.734375 77.765625 94.335938 77.183594 C 93.941406 76.605469 93.398438 76.316406 92.707031 76.316406 L 91.441406 76.316406 L 91.441406 85.140625 L 92.707031 85.140625 C 94.191406 85.140625 94.933594 83.808594 94.933594 81.144531 Z M 94.933594 81.144531 " fill-opacity="1" fill-rule="nonzero"/><path fill="#000000" d="M 112.34375 80.507812 L 112.34375 87.226562 C 112.34375 90.082031 111.738281 91.988281 110.523438 92.953125 L 111.707031 96.34375 L 109.625 96.34375 L 108.699219 93.648438 C 108.503906 93.6875 108.214844 93.707031 107.828125 93.707031 C 106.367188 93.707031 105.246094 93.242188 104.460938 92.308594 C 103.683594 91.367188 103.292969 89.675781 103.292969 87.226562 L 103.292969 80.507812 C 103.292969 78.0625 103.683594 76.371094 104.460938 75.4375 C 105.246094 74.5 106.363281 74.027344 107.820312 74.027344 C 109.273438 74.027344 110.390625 74.5 111.167969 75.4375 C 111.953125 76.371094 112.34375 78.0625 112.34375 80.507812 Z M 110.058594 87.664062 L 110.058594 80.082031 C 110.058594 77.300781 109.316406 75.910156 107.828125 75.910156 C 107.113281 75.910156 106.558594 76.210938 106.167969 76.808594 C 105.777344 77.40625 105.582031 78.5 105.582031 80.082031 L 105.582031 87.664062 C 105.582031 89.242188 105.777344 90.328125 106.167969 90.925781 C 106.558594 91.523438 107.113281 91.824219 107.828125 91.824219 L 108.0625 91.824219 L 106.566406 87.371094 L 108.582031 87.371094 L 109.652344 90.492188 C 109.921875 89.84375 110.058594 88.898438 110.058594 87.664062 Z M 110.058594 87.664062 " fill-opacity="1" fill-rule="nonzero"/><path fill="#000000" d="M 125.472656 74.460938 L 127.757812 74.460938 L 127.757812 88.675781 C 127.757812 91.125 127.363281 92.816406 126.582031 93.753906 C 125.800781 94.6875 124.699219 95.15625 123.269531 95.15625 C 121.847656 95.15625 120.746094 94.6875 119.960938 93.753906 C 119.179688 92.816406 118.792969 91.125 118.792969 88.675781 L 118.792969 74.460938 L 121.082031 74.460938 L 121.082031 89.109375 C 121.082031 90.671875 121.269531 91.753906 121.648438 92.363281 C 122.035156 92.96875 122.570312 93.273438 123.25 93.273438 C 123.9375 93.273438 124.480469 92.96875 124.871094 92.363281 C 125.269531 91.753906 125.472656 90.671875 125.472656 89.109375 Z M 125.472656 74.460938 " fill-opacity="1" fill-rule="nonzero"/><path fill="#000000" d="M 134.609375 74.460938 L 136.925781 74.460938 L 136.925781 94.71875 L 134.609375 94.71875 Z M 134.609375 74.460938 " fill-opacity="1" fill-rule="nonzero"/><path fill="#000000" d="M 142.53125 76.316406 L 142.53125 74.460938 L 150.425781 74.460938 L 150.425781 76.316406 L 147.617188 76.316406 L 147.617188 94.71875 L 145.339844 94.71875 L 145.339844 76.316406 Z M 142.53125 76.316406 " fill-opacity="1" fill-rule="nonzero"/><path fill="#000000" d="M 158.355469 85.546875 L 158.355469 92.867188 L 163.382812 92.867188 L 163.382812 94.71875 L 156.039062 94.71875 L 156.039062 74.460938 L 163.296875 74.460938 L 163.296875 76.316406 L 158.355469 76.316406 L 158.355469 83.695312 L 162.863281 83.695312 L 162.863281 85.546875 Z M 158.355469 85.546875 " fill-opacity="1" fill-rule="nonzero"/><path fill="#000000" d="M 168.382812 76.316406 L 168.382812 74.460938 L 176.277344 74.460938 L 176.277344 76.316406 L 173.46875 76.316406 L 173.46875 94.71875 L 171.191406 94.71875 L 171.191406 76.316406 Z M 168.382812 76.316406 " fill-opacity="1" fill-rule="nonzero"/><path fill="#000000" d="M 188.367188 74.460938 L 190.652344 74.460938 L 190.652344 88.675781 C 190.652344 91.125 190.257812 92.816406 189.476562 93.753906 C 188.695312 94.6875 187.59375 95.15625 186.164062 95.15625 C 184.742188 95.15625 183.640625 94.6875 182.855469 93.753906 C 182.074219 92.816406 181.6875 91.125 181.6875 88.675781 L 181.6875 74.460938 L 183.976562 74.460938 L 183.976562 89.109375 C 183.976562 90.671875 184.164062 91.753906 184.542969 92.363281 C 184.929688 92.96875 185.464844 93.273438 186.144531 93.273438 C 186.832031 93.273438 187.375 92.96875 187.765625 92.363281 C 188.164062 91.753906 188.367188 90.671875 188.367188 89.109375 Z M 188.367188 74.460938 " fill-opacity="1" fill-rule="nonzero"/><path fill="#000000" d="M 197.503906 94.71875 L 197.503906 74.460938 L 201.085938 74.460938 C 202.515625 74.460938 203.625 74.917969 204.414062 75.824219 C 205.207031 76.730469 205.601562 78.359375 205.601562 80.710938 L 205.601562 80.855469 C 205.601562 83.789062 204.886719 85.652344 203.460938 86.445312 L 205.863281 94.71875 L 203.488281 94.71875 L 201.230469 86.96875 L 199.820312 86.96875 L 199.820312 94.71875 Z M 203.316406 81.144531 L 203.316406 80.273438 C 203.316406 78.796875 203.113281 77.765625 202.71875 77.183594 C 202.324219 76.605469 201.78125 76.316406 201.085938 76.316406 L 199.820312 76.316406 L 199.820312 85.140625 L 201.085938 85.140625 C 202.570312 85.140625 203.316406 83.808594 203.316406 81.144531 Z M 203.316406 81.144531 " fill-opacity="1" fill-rule="nonzero"/><path fill="#000000" d="M 218.875 94.71875 L 217.976562 89.457031 L 213.902344 89.457031 L 213.035156 94.71875 L 210.71875 94.71875 L 214.425781 74.460938 L 217.484375 74.460938 L 221.191406 94.71875 Z M 215.949219 77.386719 L 214.222656 87.605469 L 217.65625 87.605469 Z M 215.949219 77.386719 " fill-opacity="1" fill-rule="nonzero"/></svg>