<svg xmlns="http://www.w3.org/2000/svg" xmlns:xlink="http://www.w3.org/1999/xlink" width="300" zoomAndPan="magnify" viewBox="0 0 224.87999 112.499997" height="150" preserveAspectRatio="xMidYMid meet" version="1.0"><path fill="#000000" d="M 3.269531 14.769531 L 3.269531 15.578125 C 10.226562 15.578125 10.714844 21.328125 10.714844 37.277344 L 10.714844 73.226562 C 10.714844 89.175781 10.226562 94.925781 3.269531 94.925781 L 3.269531 95.734375 L 61.140625 95.734375 L 61.140625 82.375 L 60.332031 82.375 C 60.332031 94.035156 35.644531 94.925781 27.953125 94.925781 L 17.675781 94.925781 L 17.675781 37.277344 C 17.675781 21.328125 18.160156 15.578125 25.121094 15.578125 L 25.121094 14.769531 Z M 3.269531 14.769531 " fill-opacity="1" fill-rule="nonzero"/><path fill="#000000" d="M 75.546875 81.566406 C 75.546875 89.984375 80.890625 97.355469 90.277344 97.355469 C 106.382812 97.355469 115.855469 83.105469 115.855469 63.429688 C 115.855469 59.542969 115.691406 56.304688 115.371094 53.714844 L 125.40625 80.1875 C 128.480469 88.367188 128.886719 94.925781 117.472656 94.925781 L 117.472656 95.734375 L 144.019531 95.734375 L 144.019531 94.925781 C 139.085938 94.925781 136.492188 90.472656 132.933594 81.566406 L 107.03125 13.148438 L 106.222656 13.148438 C 101.125 26.589844 98.128906 34.605469 93.191406 47.640625 C 92.382812 49.746094 92.789062 51.933594 95.054688 51.933594 C 99.667969 51.933594 102.09375 43.433594 105.980469 43.433594 C 107.03125 43.433594 107.921875 44.078125 107.921875 45.617188 C 107.921875 54.039062 75.546875 61.648438 75.546875 81.566406 Z M 82.425781 80.027344 C 82.425781 60.027344 108.8125 56.628906 108.8125 45.78125 C 108.8125 43.671875 107.679688 42.621094 106.140625 42.621094 C 101.851562 42.621094 98.855469 51.125 95.132812 51.125 C 93.839844 51.125 93.191406 50.148438 94.242188 47.316406 L 103.550781 22.542969 L 113.347656 48.371094 C 114.800781 53.148438 115.046875 57.601562 115.046875 63.59375 C 115.046875 76.871094 108.652344 93.46875 95.132812 93.46875 C 87.203125 93.46875 82.425781 87.640625 82.425781 80.027344 Z M 82.425781 80.027344 " fill-opacity="1" fill-rule="nonzero"/><path fill="#000000" d="M 156 95.734375 L 177.773438 95.734375 L 177.773438 94.925781 C 170.8125 94.925781 170.324219 89.175781 170.324219 73.226562 L 170.324219 16.875 C 175.265625 15.09375 179.148438 14.285156 185.140625 14.285156 C 200.195312 14.285156 209.664062 22.542969 209.664062 35.984375 C 209.664062 45.699219 203.105469 55.65625 192.988281 55.65625 C 185.460938 55.65625 181.738281 51.042969 176.964844 51.042969 C 175.507812 51.042969 174.132812 51.851562 174.132812 53.792969 C 174.132812 59.300781 182.710938 59.625 190.5625 71.445312 C 203.351562 90.636719 205.617188 95.734375 209.339844 95.734375 L 221.722656 95.734375 L 221.722656 94.925781 C 212.496094 94.925781 204.96875 80.511719 198.574219 70.554688 C 192.019531 60.351562 174.941406 59.21875 174.941406 53.957031 C 174.941406 52.09375 176.316406 51.851562 177.289062 51.851562 C 180.6875 51.851562 185.867188 57.035156 193.476562 57.035156 C 207.558594 57.035156 216.625 46.992188 216.625 35.902344 C 216.625 22.703125 206.992188 13.148438 189.75 13.148438 C 180.363281 13.148438 174.617188 14.769531 165.714844 14.769531 L 156 14.769531 L 156 15.578125 C 162.960938 15.578125 163.449219 21.328125 163.449219 37.277344 L 163.449219 73.226562 C 163.449219 89.175781 162.960938 94.925781 156 94.925781 Z M 156 95.734375 " fill-opacity="1" fill-rule="nonzero"/></svg>